<svg id="Vrstva_1" data-name="Vrstva 1" xmlns="http://www.w3.org/2000/svg" viewBox="0 0 410.01 155.77"><defs><style>.cls-1{fill:#231f20;stroke:#231f20;stroke-miterlimit:10;}</style></defs><rect class="cls-1" x="89.83" y="0.84" width="55.74" height="154.1"/><polygon class="cls-1" points="56.6 154.94 0.87 154.94 89.83 0.84 145.57 0.84 56.6 154.94"/><rect class="cls-1" x="178.8" y="0.84" width="55.74" height="154.1"/><polygon class="cls-1" points="145.57 154.94 89.83 154.94 178.8 0.84 234.54 0.84 145.57 154.94"/><rect class="cls-1" x="244.75" y="0.84" width="55.74" height="154.1"/><rect class="cls-1" x="336.62" y="23.38" width="36.76" height="109.02" transform="translate(432.88 -277.11) rotate(90)"/><polygon class="cls-1" points="300.49 37.59 300.49 0.84 409.51 59.51 409.51 96.26 300.49 37.59"/><rect class="cls-1" x="336.62" y="82.05" width="36.76" height="109.02" transform="translate(491.56 -218.44) rotate(90)"/><polygon class="cls-1" points="300.49 96.26 300.49 59.51 409.51 118.18 409.51 154.94 300.49 96.26"/></svg>